# Blender 5.0.1
# www.blender.org
mtllib cone.mtl
o Cone
v 0.000000 -1.000000 0.000000
v 0.000000 -1.000000 -1.000000
v 0.500000 -1.000000 -0.866025
v 0.866025 -1.000000 -0.500000
v 1.000000 -1.000000 0.000000
v 0.866025 -1.000000 0.500000
v 0.500000 -1.000000 0.866025
v 0.000000 -1.000000 1.000000
v -0.500000 -1.000000 0.866025
v -0.866025 -1.000000 0.500000
v -1.000000 -1.000000 0.000000
v -0.866025 -1.000000 -0.500000
v -0.500000 -1.000000 -0.866025
v 0.000000 1.000000 0.000000
vn -0.0000 -1.0000 -0.0000
vn 0.2331 0.4349 -0.8698
vn 0.6367 0.4349 -0.6367
vn 0.8698 0.4349 -0.2331
vn 0.8698 0.4349 0.2331
vn 0.6367 0.4349 0.6367
vn 0.2331 0.4349 0.8698
vn -0.2331 0.4349 0.8698
vn -0.6367 0.4349 0.6367
vn -0.8698 0.4349 0.2331
vn -0.8698 0.4349 -0.2331
vn -0.6367 0.4349 -0.6367
vn -0.2331 0.4349 -0.8698
s 0
f 1//1 2//1 3//1
f 2//2 14//2 3//2
f 1//1 3//1 4//1
f 3//3 14//3 4//3
f 1//1 4//1 5//1
f 4//4 14//4 5//4
f 1//1 5//1 6//1
f 5//5 14//5 6//5
f 1//1 6//1 7//1
f 6//6 14//6 7//6
f 1//1 7//1 8//1
f 7//7 14//7 8//7
f 1//1 8//1 9//1
f 8//8 14//8 9//8
f 1//1 9//1 10//1
f 9//9 14//9 10//9
f 1//1 10//1 11//1
f 10//10 14//10 11//10
f 1//1 11//1 12//1
f 11//11 14//11 12//11
f 1//1 12//1 13//1
f 12//12 14//12 13//12
f 1//1 13//1 2//1
f 13//13 14//13 2//13
