# Blender 5.0.1
# www.blender.org
mtllib uvsphere.mtl
o Sphere
v 0.000000 1.000000 0.000000
v 0.000000 0.866025 -0.500000
v 0.000000 0.000000 -1.000000
v 0.000000 -0.866025 -0.500000
v 0.000000 -1.000000 0.000000
v 0.353553 0.866025 -0.353553
v 0.612372 0.500000 -0.612372
v 0.707107 0.000000 -0.707107
v 0.612372 -0.500000 -0.612372
v 0.353553 -0.866025 -0.353553
v 0.500000 0.866025 0.000000
v 0.866025 0.500000 0.000000
v 1.000000 0.000000 0.000000
v 0.866025 -0.500000 0.000000
v 0.500000 -0.866025 0.000000
v 0.353553 0.866025 0.353553
v 0.612372 0.500000 0.612372
v 0.707107 0.000000 0.707107
v 0.612372 -0.500000 0.612372
v 0.353553 -0.866025 0.353553
v 0.000000 0.866025 0.500000
v 0.000000 0.500000 0.866025
v 0.000000 0.000000 1.000000
v 0.000000 -0.500000 0.866025
v 0.000000 -0.866025 0.500000
v -0.353553 0.866025 0.353553
v -0.612372 0.500000 0.612372
v -0.707107 0.000000 0.707107
v -0.612372 -0.500000 0.612372
v -0.353553 -0.866025 0.353553
v -0.500000 0.866025 0.000000
v -0.866025 0.500000 0.000000
v -1.000000 0.000000 0.000000
v -0.866025 -0.500000 0.000000
v -0.500000 -0.866025 0.000000
v -0.353553 0.866025 -0.353553
v -0.612372 0.500000 -0.612372
v -0.707107 0.000000 -0.707107
v -0.612372 -0.500000 -0.612372
v -0.353553 -0.866025 -0.353553
v 0.000000 0.500000 -0.866025
v 0.000000 -0.500000 -0.866025
vn 0.1066 -0.9604 -0.2573
vn 0.3715 -0.2403 -0.8968
vn 0.2811 0.6786 -0.6786
vn 0.2811 -0.6786 -0.6786
vn 0.3715 0.2403 -0.8968
vn 0.1066 0.9604 -0.2573
vn 0.8968 -0.2403 -0.3715
vn 0.6786 0.6786 -0.2811
vn 0.6786 -0.6786 -0.2811
vn 0.8968 0.2403 -0.3715
vn 0.2573 0.9604 -0.1066
vn 0.2573 -0.9604 -0.1066
vn 0.6786 0.6786 0.2811
vn 0.6786 -0.6786 0.2811
vn 0.8968 0.2403 0.3715
vn 0.2573 0.9604 0.1066
vn 0.2573 -0.9604 0.1066
vn 0.8968 -0.2403 0.3715
vn 0.2811 -0.6786 0.6786
vn 0.3715 0.2403 0.8968
vn 0.1066 0.9604 0.2573
vn 0.1066 -0.9604 0.2573
vn 0.3715 -0.2403 0.8968
vn 0.2811 0.6786 0.6786
vn -0.2811 -0.6786 0.6786
vn -0.3715 0.2403 0.8968
vn -0.1066 0.9604 0.2573
vn -0.1066 -0.9604 0.2573
vn -0.3715 -0.2403 0.8968
vn -0.2811 0.6786 0.6786
vn -0.6786 -0.6786 0.2811
vn -0.8968 0.2403 0.3715
vn -0.2573 0.9604 0.1066
vn -0.2573 -0.9604 0.1066
vn -0.8968 -0.2403 0.3715
vn -0.6786 0.6786 0.2811
vn -0.6786 -0.6786 -0.2811
vn -0.8968 0.2403 -0.3715
vn -0.2573 0.9604 -0.1066
vn -0.2573 -0.9604 -0.1066
vn -0.8968 -0.2403 -0.3715
vn -0.6786 0.6786 -0.2811
vn -0.3715 0.2403 -0.8968
vn -0.1066 0.9604 -0.2573
vn -0.1066 -0.9604 -0.2573
vn -0.3715 -0.2403 -0.8968
vn -0.2811 0.6786 -0.6786
vn -0.2811 -0.6786 -0.6786
s 0
f 5//1 4//1 10//1
f 3//2 9//2 42//2
f 2//3 7//3 41//3
f 42//4 10//4 4//4
f 41//5 8//5 3//5
f 2//6 1//6 6//6
f 8//7 14//7 9//7
f 6//8 12//8 7//8
f 9//9 15//9 10//9
f 7//10 13//10 8//10
f 6//11 1//11 11//11
f 5//12 10//12 15//12
f 11//13 17//13 12//13
f 14//14 20//14 15//14
f 13//15 17//15 18//15
f 11//16 1//16 16//16
f 5//17 15//17 20//17
f 14//18 18//18 19//18
f 19//19 25//19 20//19
f 17//20 23//20 18//20
f 16//21 1//21 21//21
f 5//22 20//22 25//22
f 18//23 24//23 19//23
f 16//24 22//24 17//24
f 24//25 30//25 25//25
f 22//26 28//26 23//26
f 21//27 1//27 26//27
f 5//28 25//28 30//28
f 23//29 29//29 24//29
f 21//30 27//30 22//30
f 29//31 35//31 30//31
f 27//32 33//32 28//32
f 26//33 1//33 31//33
f 5//34 30//34 35//34
f 28//35 34//35 29//35
f 26//36 32//36 27//36
f 34//37 40//37 35//37
f 32//38 38//38 33//38
f 31//39 1//39 36//39
f 5//40 35//40 40//40
f 33//41 39//41 34//41
f 31//42 37//42 32//42
f 37//43 3//43 38//43
f 36//44 1//44 2//44
f 5//45 40//45 4//45
f 38//46 42//46 39//46
f 36//47 41//47 37//47
f 40//48 42//48 4//48
f 3//2 8//2 9//2
f 2//3 6//3 7//3
f 42//4 9//4 10//4
f 41//5 7//5 8//5
f 8//7 13//7 14//7
f 6//8 11//8 12//8
f 9//9 14//9 15//9
f 7//10 12//10 13//10
f 11//13 16//13 17//13
f 14//14 19//14 20//14
f 13//15 12//15 17//15
f 14//18 13//18 18//18
f 19//19 24//19 25//19
f 17//20 22//20 23//20
f 18//23 23//23 24//23
f 16//24 21//24 22//24
f 24//25 29//25 30//25
f 22//26 27//26 28//26
f 23//29 28//29 29//29
f 21//30 26//30 27//30
f 29//31 34//31 35//31
f 27//32 32//32 33//32
f 28//35 33//35 34//35
f 26//36 31//36 32//36
f 34//37 39//37 40//37
f 32//38 37//38 38//38
f 33//41 38//41 39//41
f 31//42 36//42 37//42
f 37//43 41//43 3//43
f 38//46 3//46 42//46
f 36//47 2//47 41//47
f 40//48 39//48 42//48
